<svg clip-rule="evenodd" fill-rule="evenodd" stroke-linecap="round" stroke-linejoin="round" stroke-miterlimit="1.5" viewBox="0 0 74 74" xmlns="http://www.w3.org/2000/svg" xmlns:xlink="http://www.w3.org/1999/xlink"><clipPath id="a"><path clip-rule="evenodd" d="m-61.103 30.583h91.204v75.841h-91.204z"/></clipPath><g transform="matrix(.81137 0 0 .97572 49.5771 -29.8409)"><path d="m-61.103 30.583h91.204v75.841h-91.204z" fill="none"/><g clip-path="url(#a)"><circle cx="37.268" cy="36.545" fill="#282929" r="22.283" transform="matrix(1.9911453888 0 0 1.6557551328 -89.71204 7.99242608)"/><circle cx="37.268" cy="36.545" fill="#343534" r="22.283" stroke="#181918" stroke-width=".76" transform="matrix(1.6191582752 0 0 1.3464258512 -75.84664 19.29685248)"/><circle cx="37.268" cy="36.545" fill="#901d06" r="22.283" transform="matrix(1.2444720304 0 0 1.0348520824 -61.8826416 30.68326928)"/><circle cx="37.268" cy="36.545" fill="none" r="22.283" transform="matrix(2.0464590912 0 0 1.7017517472 -91.7702816 6.31162288)"/><path d="m14.245 36.271h22.972v3.499h-22.972z" fill="#fff" transform="matrix(.834604644 -.694023114 .74717744272 .62132222632 -74.9715792 70.7089328)"/></g></g></svg>