<svg clip-rule="evenodd" fill-rule="evenodd" stroke-linejoin="round" stroke-miterlimit="2" viewBox="0 0 15 29" xmlns="http://www.w3.org/2000/svg" xmlns:xlink="http://www.w3.org/1999/xlink"><radialGradient id="a" cx="0" cy="0" gradientTransform="matrix(9.62968 0 0 21.719 345.283 226.273)" gradientUnits="userSpaceOnUse" r="1"><stop offset="0" stop-color="#fffbdf"/><stop offset=".49" stop-color="#e6d136"/><stop offset="1" stop-color="#dec400"/></radialGradient><radialGradient id="b" cx="0" cy="0" gradientTransform="matrix(9.62968 0 0 21.719 347.099 227.531)" gradientUnits="userSpaceOnUse" r="1"><stop offset="0" stop-color="#fff"/><stop offset=".21" stop-color="#f2e89b" stop-opacity=".61"/><stop offset=".43" stop-color="#e5d032" stop-opacity=".2"/><stop offset="1" stop-color="#dec400" stop-opacity="0"/></radialGradient><clipPath id="c"><path clip-rule="evenodd" d="m-.153 55.971h16.696v45.608h-16.696z"/></clipPath><g transform="matrix(.898393 0 0 .619678 .137838 -34.684)"><path d="m-.153 55.971h16.696v45.608h-16.696z" fill="none"/><g clip-path="url(#c)"><path d="m356.948 217.149c0-6.421-4.315-11.635-9.63-11.635-5.314 0-9.629 5.214-9.629 11.635v20.168c0 6.422 4.315 11.635 9.629 11.635 5.315 0 9.63-5.213 9.63-11.635z" fill="url(#a)" transform="matrix(.86692760576 0 0 1.04021034904 -292.905474395 -157.80735474)"/><path d="m356.948 217.149c0-6.421-4.315-11.635-9.63-11.635-5.314 0-9.629 5.214-9.629 11.635v20.168c0 6.422 4.315 11.635 9.629 11.635 5.315 0 9.63-5.213 9.63-11.635z" fill="url(#b)" transform="matrix(.86692760576 0 0 1.04021034904 -292.905474395 -157.80735474)"/></g></g></svg>